<svg xmlns="http://www.w3.org/2000/svg" width="16.86" height="26.225"><path d="M12.332 21.909v1a1.586 1.586 0 0 1-1.345 1.57l-.244.908a1.131 1.131 0 0 1-1.091.838H7.208a1.129 1.129 0 0 1-1.091-.838l-.239-.908a1.591 1.591 0 0 1-1.352-1.577v-1a.962.962 0 0 1 .959-.965h5.885a.973.973 0 0 1 .962.972zM16.86 8.437a8.39 8.39 0 0 1-2.366 5.851 7.729 7.729 0 0 0-2.07 4.2 1.394 1.394 0 0 1-1.38 1.176H5.808a1.379 1.379 0 0 1-1.369-1.177 7.823 7.823 0 0 0-2.084-4.211 8.429 8.429 0 1 1 14.5-5.844zm-7.478-5.1a.951.951 0 0 0-.951-.951A6.089 6.089 0 0 0 2.343 8.46a.951.951 0 0 0 1.9 0 4.187 4.187 0 0 1 4.182-4.182.947.947 0 0 0 .957-.937z" fill="#3f51b5"/></svg>