<svg xmlns="http://www.w3.org/2000/svg" width="23.942" height="27.91"><path d="M4.497 6.409l4.507-3.724 6.286-1.428 3 1.428 3.207 3.724 1.02 4.566-3.11 8.427v5.007l-10.4 1.974-4.51-3.866-2.749-5.186z" fill="#3f51b5"/><path d="M13.219 1a9.725 9.725 0 0 0-9.715 9.715v1.428l-2.343 4.686A.81.81 0 0 0 1.884 18h1.619v3.9a1.618 1.618 0 0 0 1.616 1.622 1.582 1.582 0 0 0 .266-.022l2.976-.5v3.1a.812.812 0 0 0 .81.81.665.665 0 0 0 .133-.011l9.715-1.619a.809.809 0 0 0 .677-.8v-4.99a4.127 4.127 0 0 1 1.018-2.59A9.716 9.716 0 0 0 13.219 1z" fill="none" stroke="#fff" stroke-width="2"/><path d="M18.983 8.054h-.289a.43.43 0 0 1-.414-.3 3.568 3.568 0 0 0-.277-.66.431.431 0 0 1 .075-.513l.207-.207a.433.433 0 0 0 0-.612l-.349-.349a.434.434 0 0 0-.613 0l-.207.207a.431.431 0 0 1-.512.075 3.573 3.573 0 0 0-.66-.277.43.43 0 0 1-.3-.414v-.292a.433.433 0 0 0-.433-.433h-.494a.434.434 0 0 0-.433.433v.27a.432.432 0 0 1-.312.416 3.518 3.518 0 0 0-.68.274.429.429 0 0 1-.507-.078L12.6 5.41a.434.434 0 0 0-.613 0l-.349.349a.433.433 0 0 0 0 .613l.166.166a.433.433 0 0 1 .073.516 3.459 3.459 0 0 0-.3.7.433.433 0 0 1-.416.3h-.222a.433.433 0 0 0-.433.433v.494a.432.432 0 0 0 .433.433h.2a.434.434 0 0 1 .416.311 3.407 3.407 0 0 0 .294.719.432.432 0 0 1-.076.511l-.143.143a.433.433 0 0 0 0 .613l.349.349a.432.432 0 0 0 .612 0l.143-.143a.432.432 0 0 1 .511-.076 3.407 3.407 0 0 0 .719.294.434.434 0 0 1 .311.416v.2a.432.432 0 0 0 .433.433h.494a.433.433 0 0 0 .433-.433v-.222a.434.434 0 0 1 .3-.416 3.456 3.456 0 0 0 .7-.3.433.433 0 0 1 .516.073l.166.166a.432.432 0 0 0 .612 0l.349-.349a.433.433 0 0 0 0-.612l-.184-.185a.429.429 0 0 1-.078-.507 3.518 3.518 0 0 0 .274-.68.432.432 0 0 1 .416-.312h.27a.433.433 0 0 0 .433-.433v-.492a.433.433 0 0 0-.426-.428zm-4.021 2.778a2.1 2.1 0 1 1 2.1-2.1 2.1 2.1 0 0 1-2.1 2.1z" fill="#fbd200"/></svg>