<svg xmlns="http://www.w3.org/2000/svg" width="21" height="20"><g transform="translate(-497.296 -228.563)"><rect width="21" height="20" rx="3" transform="translate(497.296 228.563)" fill="#3f51b5"/><path d="M512.534 233.671a1.738 1.738 0 0 0-2.414 0l-6.767 6.6a.369.369 0 0 0-.1.163l-.89 3.132a.36.36 0 0 0 .1.36.382.382 0 0 0 .369.1l3.213-.868a.374.374 0 0 0 .167-.1l6.766-6.6a1.636 1.636 0 0 0 .039-2.313l-.039-.04zm-8.354 6.837l5.538-5.4 1.786 1.741-5.538 5.4zm-.357.7l1.427 1.391-1.974.533zm8.62-5.271l-.4.392-1.786-1.741.4-.392a.966.966 0 0 1 1.341 0l.445.434a.91.91 0 0 1 .019 1.286l-.019.019z" fill="#ea5d00"/><path d="M509.55 234.707l2.129-1.072 1.437 1.772-1.437 1.209-.247.465-1.882 2.129-4.477 3.86.669-.513-2.138-1.536z" fill="#ea5d00"/></g></svg>