<svg xmlns="http://www.w3.org/2000/svg" width="28.705" height="30.838"><g fill="#3f51b5"><path d="M19.029 12.929l-.628.378a1.1 1.1 0 0 1-1.3-.122 8.838 8.838 0 0 0-1.463-1.075 1.1 1.1 0 0 1-.508-1.212l.18-.72a1.1 1.1 0 0 0-.8-1.334l-1.218-.3a1.1 1.1 0 0 0-1.333.8l-.181.721a1.1 1.1 0 0 1-1.016.832 8.878 8.878 0 0 0-1.8.263 1.1 1.1 0 0 1-1.2-.5l-.377-.628a1.1 1.1 0 0 0-1.51-.377l-1.076.647a1.1 1.1 0 0 0-.377 1.509l.353.588a1.1 1.1 0 0 1-.134 1.312 8.819 8.819 0 0 0-1.123 1.485 1.1 1.1 0 0 1-1.206.492l-.643-.16a1.1 1.1 0 0 0-1.333.8l-.3 1.217a1.1 1.1 0 0 0 .8 1.333l.577.144a1.1 1.1 0 0 1 .833 1.029 8.867 8.867 0 0 0 .264 1.9 1.1 1.1 0 0 1-.506 1.209l-.484.29a1.1 1.1 0 0 0-.376 1.509l.646 1.075a1.1 1.1 0 0 0 1.509.377l.446-.268a1.1 1.1 0 0 1 1.312.132 8.877 8.877 0 0 0 1.581 1.18 1.1 1.1 0 0 1 .505 1.213l-.124.5a1.1 1.1 0 0 0 .8 1.334l1.218.3a1.1 1.1 0 0 0 1.333-.8l.124-.5a1.1 1.1 0 0 1 1.016-.834 8.816 8.816 0 0 0 1.95-.3 1.1 1.1 0 0 1 1.221.5l.268.446a1.1 1.1 0 0 0 1.509.376l1.075-.646a1.1 1.1 0 0 0 .377-1.509l-.291-.484a1.1 1.1 0 0 1 .121-1.3 8.85 8.85 0 0 0 1.126-1.558 1.1 1.1 0 0 1 1.219-.517l.577.143a1.1 1.1 0 0 0 1.333-.8l.3-1.217a1.1 1.1 0 0 0-.8-1.334l-.643-.161a1.1 1.1 0 0 1-.834-1 8.873 8.873 0 0 0-.294-1.839 1.1 1.1 0 0 1 .5-1.222l.587-.352a1.1 1.1 0 0 0 .376-1.51l-.648-1.078a1.1 1.1 0 0 0-1.509-.376zm-5.124 11.305a5.324 5.324 0 1 1 1.821-7.306 5.324 5.324 0 0 1-1.821 7.306z"/><path d="M28.113 5.208h-.4a.593.593 0 0 1-.57-.419 4.888 4.888 0 0 0-.381-.908.6.6 0 0 1 .1-.706l.285-.285a.6.6 0 0 0 0-.844l-.481-.481a.6.6 0 0 0-.844 0l-.285.285a.6.6 0 0 1-.706.1 4.915 4.915 0 0 0-.908-.381.592.592 0 0 1-.419-.569V.6a.6.6 0 0 0-.6-.6h-.68a.6.6 0 0 0-.6.6v.371a.594.594 0 0 1-.429.573 4.844 4.844 0 0 0-.937.377.593.593 0 0 1-.7-.107l-.254-.254a.6.6 0 0 0-.844 0l-.481.481a.6.6 0 0 0 0 .844l.228.228a.6.6 0 0 1 .1.711 4.8 4.8 0 0 0-.409.959.6.6 0 0 1-.573.42h-.306a.6.6 0 0 0-.6.6v.68a.6.6 0 0 0 .6.6h.282a.6.6 0 0 1 .573.428 4.736 4.736 0 0 0 .4.99.6.6 0 0 1-.1.7l-.2.2a.6.6 0 0 0 0 .844l.481.481a.6.6 0 0 0 .844 0l.2-.2a.6.6 0 0 1 .7-.1 4.693 4.693 0 0 0 .99.405.6.6 0 0 1 .428.573v.282a.6.6 0 0 0 .6.6h.68a.6.6 0 0 0 .6-.6v-.306a.6.6 0 0 1 .42-.573 4.8 4.8 0 0 0 .959-.409.6.6 0 0 1 .711.1l.228.228a.6.6 0 0 0 .844 0l.481-.481a.6.6 0 0 0 0-.844l-.254-.254a.592.592 0 0 1-.107-.7 4.845 4.845 0 0 0 .377-.937.593.593 0 0 1 .573-.429h.371a.6.6 0 0 0 .6-.6v-.68a.6.6 0 0 0-.587-.593zm-5.54 3.824a2.887 2.887 0 1 1 2.887-2.887 2.886 2.886 0 0 1-2.887 2.887z"/></g></svg>